<svg xmlns="http://www.w3.org/2000/svg" width="200.2" height="250.942" viewBox="0 0 200.2 250.942">
  <g id="Capa_x0020_1" transform="translate(2.059 -0.001)">
    <path id="Path_151" data-name="Path 151" d="M115.1,5.405l71.851,69.508a19.357,19.357,0,0,1,.455,27.29L117.9,174.054a19.357,19.357,0,0,1-27.29.455L18.76,105a19.357,19.357,0,0,1-.455-27.29L87.813,5.86a19.357,19.357,0,0,1,27.29-.455Zm31.941,54.767L133.681,78,120.235,60.172H99.787l23.722,31.383L118.672,98c-6.942,11.237-22.1,10.519-24.653-2.646C87.93,63.888,87.189,58.912,65.472,58.167,48.822,57.6,39.962,66.624,39.962,82.855v37.324h17.3V84.193c0-5.257,2.789-10.874,8.405-11.051,6.509-.208,9.882,3.681,10.874,10.675l2,14.117c3.46,30.651,46.05,27.563,55.668,7.756l10.956,14.49h20.314L144.351,92.165l24.012-32H147.049Z" transform="translate(-8.482 0)" fill="#2d62ed" fill-rule="evenodd"/>
    <path id="Path_152" data-name="Path 152" d="M19.037,448.42a10.657,10.657,0,0,1,8.089,3.586q3.345,3.586,3.343,10.337v18.422h-9.22l.052-17.413a7.648,7.648,0,0,0-1.4-4.859,4.551,4.551,0,0,0-3.776-1.775,6.5,6.5,0,0,0-3.962,1.39,12.615,12.615,0,0,0-3.153,3.464v19.193H0V448.957H8.683l.325,4.859q4.8-5.391,10.029-5.391Zm46.323,32.34H56.893l-.433-3.967q-4.527,4.976-9.869,4.976a9.72,9.72,0,0,1-7.578-3.525q-3.1-3.527-3.1-9.505V448.953H45.08v19.071a5.318,5.318,0,0,0,1.295,3.763,4.3,4.3,0,0,0,3.291,1.39q3.67,0,6.526-4.144v-20.08h9.168V480.76Zm27.312,0-7.08-9.449-7.128,9.449H67.624L80.2,464.126,68.811,448.953h11.3l5.759,7.682,5.807-7.682h10.765L91.242,463.8l12.727,16.962h-11.3Z" transform="translate(-1.167 -254.234)" fill="#0333b1"/>
    <path id="Path_153" data-name="Path 153" d="M255.677,437.017h8.2v8.47h-8.2v10.068a5.583,5.583,0,0,0,1.347,3.967,4.589,4.589,0,0,0,3.235,1.364A8.365,8.365,0,0,0,265,459.345l2.533,7.405a17.871,17.871,0,0,1-9.007,2.668,11.112,11.112,0,0,1-8.626-3.612,13.208,13.208,0,0,1-3.291-9.241V445.487H241.33v-8.47h5.283V427.36h9.059v9.657Zm29.928-.888a15.28,15.28,0,0,1,9.462,3.079,14.659,14.659,0,0,1,5.257,7.461,16.477,16.477,0,0,1,.16,9.064h-21.73a7.114,7.114,0,0,0,3.049,4.144,9.245,9.245,0,0,0,5.257,1.364,14.45,14.45,0,0,0,9.22-3.85l3.993,6.929a19.323,19.323,0,0,1-5.768,3.525,20.165,20.165,0,0,1-7.873,1.511,19.825,19.825,0,0,1-8.466-1.806,15.585,15.585,0,0,1-6.47-5.716,16.368,16.368,0,0,1-2.59-9.241q0-7.58,4.746-12.082a16.011,16.011,0,0,1,11.757-4.382Zm-6.794,12.736h13.212a4.877,4.877,0,0,0-1.78-3.525,6.514,6.514,0,0,0-4.421-1.451,7.462,7.462,0,0,0-4.4,1.3A6.883,6.883,0,0,0,278.81,448.865Zm45.89-12.381a10.657,10.657,0,0,1,8.089,3.586q3.345,3.586,3.343,10.337v18.422h-9.219l.052-17.413a7.648,7.648,0,0,0-1.4-4.859,4.551,4.551,0,0,0-3.776-1.775,6.5,6.5,0,0,0-3.962,1.39,12.618,12.618,0,0,0-3.153,3.464v19.193h-9.007V437.021h8.682l.325,4.859q4.8-5.391,10.029-5.391Z" transform="translate(-137.991 -242.294)" fill="#2d62ed"/>
    <g id="Group_302" data-name="Group 302" transform="translate(-2.059 227.944)">
      <text id="Nielsen_user_experience" data-name="Nielsen user experience" transform="translate(0 18)" fill="#0333b1" font-size="19" font-family="Corbel-Bold, Corbel" font-weight="700"><tspan x="0" y="0">Nielsen user experience</tspan></text>
    </g>
  </g>
</svg>
