<svg xmlns="http://www.w3.org/2000/svg" width="113.219" height="24.128" viewBox="0 0 113.219 24.128">
  <path id="Path_150" data-name="Path 150" d="M-313243.094,3917.644a5.976,5.976,0,0,1,4.625,2.036,8.231,8.231,0,0,1,1.906,5.872v10.466h-5.219l.031-9.894a4.538,4.538,0,0,0-.812-2.759,2.662,2.662,0,0,0-2.187-1.01,3.8,3.8,0,0,0-2.219.791,7.6,7.6,0,0,0-1.781,1.969v10.9h-5.125v-18.071h4.938l.188,2.759C-313246.937,3918.664-313245.031,3917.644-313243.094,3917.644Zm26.375,18.374h-4.844l-.25-2.254a7.5,7.5,0,0,1-5.594,2.827,5.372,5.372,0,0,1-4.281-2,7.7,7.7,0,0,1-1.812-5.4v-11.239h5.281v10.835a2.95,2.95,0,0,0,.688,2.137,2.366,2.366,0,0,0,1.844.791,4.614,4.614,0,0,0,3.75-2.356v-11.407h5.219Zm15.438,0-3.937-5.367-4.062,5.367h-6.156l7.125-9.45-6.469-8.621h6.406l3.281,4.363,3.313-4.363h6.094l-6.312,8.435,7.188,9.636Zm14.938-18.071h4.625v4.812h-4.625v5.721a3.172,3.172,0,0,0,.719,2.254,2.819,2.819,0,0,0,1.906.775,5,5,0,0,0,2.688-.875l1.406,4.207a10.133,10.133,0,0,1-5.062,1.514,6.384,6.384,0,0,1-4.937-2.053,7.647,7.647,0,0,1-1.906-5.25v-6.293h-2.969v-4.812h2.969v-5.485h5.188Zm17-.5a8.681,8.681,0,0,1,5.375,1.75,8.615,8.615,0,0,1,3.031,4.24,9.912,9.912,0,0,1,.063,5.148h-12.344a3.943,3.943,0,0,0,1.719,2.356,5.229,5.229,0,0,0,2.969.774,8.333,8.333,0,0,0,5.25-2.188l2.25,3.938a9.649,9.649,0,0,1-3.312,2,11.205,11.205,0,0,1-4.375.858,11.257,11.257,0,0,1-4.844-1.027,9.032,9.032,0,0,1-3.687-3.247,8.908,8.908,0,0,1-1.469-5.25,9.089,9.089,0,0,1,2.719-6.865A9.012,9.012,0,0,1-313169.344,3917.441Zm-3.812,7.235h7.469a2.95,2.95,0,0,0-.969-2,3.924,3.924,0,0,0-2.594-.824,4.3,4.3,0,0,0-2.469.74A3.742,3.742,0,0,0-313173.156,3924.677Zm26-7.033a6.183,6.183,0,0,1,4.656,2.036c1.281,1.357,1.844,3.314,1.844,5.872v10.466h-5.25l.031-9.894a4.156,4.156,0,0,0-.781-2.759,2.466,2.466,0,0,0-2.125-1.01,3.77,3.77,0,0,0-2.281.791,8.2,8.2,0,0,0-1.781,1.969v10.9h-5.094v-18.071h4.938l.156,2.759C-313151,3918.664-313149.125,3917.644-313147.156,3917.644Z" transform="translate(313253.875 -3912.461)" fill="#fff"/>
</svg>
