<svg xmlns="http://www.w3.org/2000/svg" width="45.031" height="44.993" viewBox="0 0 45.031 44.993">
  <path id="Path_149" data-name="Path 149" d="M-274176.25-3680.283l18,17.382a4.788,4.788,0,0,1,.125,6.825l-17.375,17.969a4.826,4.826,0,0,1-6.812.113l-18-17.383a4.844,4.844,0,0,1-.125-6.825l17.406-17.969A4.788,4.788,0,0,1-274176.25-3680.283Zm8,13.7-3.344,4.457-3.344-4.457h-5.125l5.938,7.848-1.187,1.611c-1.75,2.811-5.562,2.631-6.156-.661-1.531-7.869-1.719-9.114-7.156-9.3-4.187-.143-6.406,2.115-6.406,6.174v9.334h4.344v-9c0-1.314.688-2.719,2.094-2.764,1.625-.052,2.469.921,2.719,2.67l.5,3.53c.875,7.666,11.563,6.893,13.938,1.94l2.75,3.623h5.063l-5.281-7.005,6-8Z" transform="translate(274201.781 3681.635)" fill="#fff" fill-rule="evenodd"/>
</svg>
